<?xml version="1.0" encoding="utf-8"?>
<!-- Generator: Adobe Illustrator 26.0.2, SVG Export Plug-In . SVG Version: 6.00 Build 0)  -->
<svg version="1.1" id="Ebene_1" xmlns="http://www.w3.org/2000/svg" xmlns:xlink="http://www.w3.org/1999/xlink" x="0px" y="0px"
	 width="279.2px" height="63px" viewBox="0 0 279.2 63" style="enable-background:new 0 0 279.2 63;" xml:space="preserve">
<style type="text/css">
	.st0{fill:#706F6F;}
</style>
<g>
	<g>
		<path class="st0" d="M0,1.4h1l3,12.3L7.4,1.4h0.6l3.5,12.3l3-12.3h1l-3.5,14h-0.7L7.7,3.3L4.3,15.4H3.5L0,1.4z"/>
		<path class="st0" d="M17.9,11.2c0,2.3,1.1,3.6,3.2,3.6c1.1,0,1.8-0.3,2.4-0.9l0.7,0.5c-0.7,0.9-1.7,1.2-3.1,1.2
			c-2.7,0-4-1.5-4-4.5v-0.9c0-3,1.2-4.6,3.8-4.6c2.6,0,3.8,1.5,3.8,4.6v0.5h-6.6C17.9,10.6,17.9,11.2,17.9,11.2z M23.6,9.9V9.8
			c0-1-0.2-1.8-0.6-2.4c-0.5-0.7-1.2-1-2.3-1c-1.9,0-2.9,1.2-2.9,3.4v0.1C17.9,9.9,23.6,9.9,23.6,9.9z"/>
		<path class="st0" d="M27.5,1.4h0.9v5.7C29,6,30,5.5,31.4,5.5C33.9,5.5,35,7,35,9.8v1.5c0,2.8-1.2,4.3-3.6,4.3
			c-1.5,0-2.3-0.4-3.1-1.5l-0.1,1.4h-0.8L27.5,1.4L27.5,1.4z M34.1,9.9c0-2.3-0.9-3.5-2.8-3.5c-1.9,0-2.9,1.2-2.9,3.6v1.3
			c0,2.3,1,3.5,2.9,3.5c1.9,0,2.8-1.2,2.8-3.5L34.1,9.9L34.1,9.9z"/>
		<path class="st0" d="M37.8,13.8c0.7,0.7,1.6,0.9,2.9,0.9c1.9,0,2.9-0.6,2.9-1.9c0-0.7-0.3-1.2-0.8-1.5c-0.5-0.3-0.8-0.3-2-0.5
			c-1.4-0.2-1.9-0.4-2.4-0.8c-0.5-0.4-0.7-1-0.7-1.8c0-1.7,1.1-2.7,3-2.7c1.5,0,2.6,0.4,3.3,1.3l-0.7,0.5c-0.6-0.7-1.4-1-2.5-1
			c-1.4,0-2.2,0.7-2.2,1.8c0,0.6,0.3,1.1,0.7,1.4c0.3,0.2,0.7,0.3,1.7,0.5c1.4,0.2,2.1,0.4,2.6,0.8c0.5,0.4,0.8,1.1,0.8,2
			c0,1.8-1.2,2.7-3.7,2.7c-1.6,0-2.9-0.4-3.6-1.2L37.8,13.8z"/>
		<path class="st0" d="M47.7,11.2c0,2.3,1.1,3.6,3.2,3.6c1.1,0,1.8-0.3,2.4-0.9l0.7,0.5c-0.7,0.9-1.7,1.2-3.1,1.2
			c-2.7,0-4-1.5-4-4.5v-0.9c0-3,1.2-4.6,3.8-4.6c2.6,0,3.8,1.5,3.8,4.6v0.5h-6.6C47.7,10.6,47.7,11.2,47.7,11.2z M53.5,9.9V9.8
			c0-1-0.2-1.8-0.6-2.4c-0.5-0.7-1.2-1-2.3-1c-1.9,0-2.9,1.2-2.9,3.4v0.1C47.7,9.9,53.5,9.9,53.5,9.9z"/>
		<path class="st0" d="M57.4,1.4h0.9v1.8h-0.9V1.4z M57.4,5.7h0.9v9.7h-0.9V5.7z"/>
		<path class="st0" d="M61,6.5V5.7h1.2l0-3.3h0.9v3.3h1.9v0.8h-1.9v6.4c0,1.3,0.4,1.7,1.6,1.7h0.4v0.8h-0.4c-2,0-2.6-0.6-2.6-2.6
			V6.5H61z"/>
		<path class="st0" d="M68.3,11.2c0,2.3,1.1,3.6,3.2,3.6c1.1,0,1.8-0.3,2.4-0.9l0.7,0.5c-0.7,0.9-1.7,1.2-3.1,1.2
			c-2.7,0-4-1.5-4-4.5v-0.9c0-3,1.2-4.6,3.8-4.6c2.6,0,3.8,1.5,3.8,4.6v0.5h-6.6C68.3,10.6,68.3,11.2,68.3,11.2z M74,9.9V9.8
			c0-1-0.2-1.8-0.6-2.4c-0.5-0.7-1.2-1-2.3-1c-1.9,0-2.9,1.2-2.9,3.4v0.1C68.3,9.9,74,9.9,74,9.9z"/>
		<path class="st0" d="M88.8,14c-0.8,1.2-1.5,1.5-3.1,1.5c-2.4,0-3.6-1.4-3.6-4.3V9.8c0-2.9,1.2-4.3,3.6-4.3c1.4,0,2.4,0.5,3,1.5
			V1.4h0.9v14h-0.8L88.8,14z M83,11.3c0,2.3,0.9,3.5,2.8,3.5c1.9,0,2.9-1.2,2.9-3.5V9.9c0-2.4-1-3.6-2.9-3.6C84,6.4,83,7.5,83,9.9
			V11.3z"/>
		<path class="st0" d="M93.8,11.2c0,2.3,1.1,3.6,3.2,3.6c1.1,0,1.8-0.3,2.4-0.9l0.7,0.5c-0.7,0.9-1.7,1.2-3.1,1.2
			c-2.7,0-4-1.5-4-4.5v-0.9c0-3,1.2-4.6,3.8-4.6c2.6,0,3.8,1.5,3.8,4.6v0.5h-6.6V11.2z M99.5,9.9V9.8c0-1-0.2-1.8-0.6-2.4
			c-0.5-0.7-1.2-1-2.3-1c-1.9,0-2.9,1.2-2.9,3.4v0.1C93.8,9.9,99.5,9.9,99.5,9.9z"/>
		<path class="st0" d="M103.5,5.7h0.7l0.1,1.5c0.5-1.1,1.3-1.6,2.6-1.6c0.6,0,1.1,0.1,1.7,0.4l-0.4,0.8c-0.5-0.3-0.9-0.4-1.4-0.4
			c-1.7,0-2.4,1.3-2.4,4.3v4.8h-0.9L103.5,5.7L103.5,5.7z"/>
		<path class="st0" d="M115.2,1.4h7.8v0.8h-6.9V8h5.9v0.8h-5.9v6.6h-0.9C115.2,15.4,115.2,1.4,115.2,1.4z"/>
		<path class="st0" d="M125.6,1.4h4.3c3.2,0,5,1.9,4.9,5.2v3.5c0.1,3.4-1.7,5.3-4.9,5.3h-4.3V1.4z M129.7,14.6
			c2.7,0.1,4.1-1.5,4.1-4.6V6.8c0.1-3-1.4-4.6-4.1-4.5h-3.2v12.3H129.7z"/>
		<path class="st0" d="M139.6,15.4h-0.9v-14h4.4c1.6,0,2.6,0.3,3.3,1.1c0.7,0.7,1,1.7,1,3c0,1.4-0.4,2.4-1.2,3.2
			c-0.7,0.7-1.6,0.9-3.1,0.9h-3.4L139.6,15.4L139.6,15.4z M143,8.9c1.2,0,1.9-0.3,2.5-0.8c0.6-0.6,0.8-1.4,0.8-2.5
			c0-1.2-0.3-2-1-2.6c-0.6-0.5-1.2-0.7-2.3-0.7h-3.4v6.6L143,8.9L143,8.9z"/>
		<path class="st0" d="M150.3,7.8h5.1v0.8h-5.1V7.8z"/>
		<path class="st0" d="M159.6,1.4h7.8v0.8h-6.9V8h5.9v0.8h-5.9v6.6h-0.9C159.6,15.4,159.6,1.4,159.6,1.4z"/>
		<path class="st0" d="M169.6,5.7h0.7l0.1,1.5c0.5-1.1,1.3-1.6,2.6-1.6c0.6,0,1.1,0.1,1.7,0.4l-0.4,0.8c-0.5-0.3-0.9-0.4-1.4-0.4
			c-1.7,0-2.4,1.3-2.4,4.3v4.8h-0.9L169.6,5.7L169.6,5.7z"/>
		<path class="st0" d="M182.4,9c0-1-0.1-1.4-0.4-1.8c-0.4-0.5-1.1-0.8-2.1-0.8c-1.1,0-1.9,0.3-2.6,1l-0.6-0.5
			c0.7-0.8,1.9-1.3,3.3-1.3c1.4,0,2.3,0.4,2.9,1.2c0.3,0.6,0.5,1.1,0.5,2.3v6.3h-0.8l-0.1-0.8c-0.6,0.7-1.4,0.9-2.9,0.9
			c-2.6,0-3.5-0.7-3.5-2.8c0-2.1,1-2.9,3.7-2.9h2.6L182.4,9L182.4,9z M179.8,10.6c-2.1,0-2.8,0.6-2.8,2.1c0,1.5,0.7,2,2.7,2
			c1.3,0,2-0.2,2.4-0.7c0.2-0.3,0.3-0.6,0.3-1.5v-1.9H179.8z"/>
		<path class="st0" d="M186.8,1.4h0.9V12l4.9-6.2h1.1l-3.3,4.1l3.7,5.6h-1l-3.3-4.9l-2.2,2.7v2.2h-0.9V1.4z"/>
		<path class="st0" d="M196,6.5V5.7h1.2l0-3.3h0.9v3.3h1.9v0.8h-1.9v6.4c0,1.3,0.4,1.7,1.6,1.7h0.4v0.8h-0.4c-2,0-2.6-0.6-2.6-2.6
			V6.5H196z"/>
		<path class="st0" d="M203,1.4h0.9v1.8H203V1.4z M203,5.7h0.9v9.7H203V5.7z"/>
		<path class="st0" d="M207.2,9.8c0-2.8,1.3-4.3,3.9-4.3s3.9,1.4,3.9,4.3v1.5c0,2.8-1.3,4.2-3.9,4.2s-3.9-1.4-3.9-4.2V9.8z M214,9.8
			c0-2.3-1-3.5-2.9-3.5c-2,0-2.9,1.2-2.9,3.5v1.5c0,2.3,1,3.4,2.9,3.4c2,0,2.9-1.1,2.9-3.4V9.8z"/>
		<path class="st0" d="M218.1,5.7h0.7l0.1,1.5c0.6-1.1,1.5-1.6,2.9-1.6c1.6,0,2.7,0.6,3.2,1.9c0.2,0.5,0.3,1.3,0.3,2.4v5.6h-0.9V9.9
			c0-1-0.1-1.7-0.3-2.2c-0.4-0.9-1.2-1.4-2.3-1.4c-1.3,0-2.1,0.6-2.5,1.8c-0.2,0.6-0.3,1.2-0.3,2.4v4.9h-0.9L218.1,5.7L218.1,5.7z"
			/>
		<path class="st0" d="M233.3,1.4h0.9v1.8h-0.9V1.4z M233.3,5.7h0.9v9.7h-0.9V5.7z"/>
		<path class="st0" d="M237.8,5.7h0.7l0.1,1.5c0.6-1.1,1.5-1.6,2.9-1.6c1.6,0,2.7,0.6,3.2,1.9c0.2,0.5,0.3,1.3,0.3,2.4v5.6h-0.9V9.9
			c0-1-0.1-1.7-0.3-2.2c-0.4-0.9-1.2-1.4-2.3-1.4c-1.3,0-2.1,0.6-2.5,1.8c-0.2,0.6-0.3,1.2-0.3,2.4v4.9h-0.9L237.8,5.7L237.8,5.7z"
			/>
		<path class="st0" d="M259.3,14c-0.8,1.2-1.5,1.5-3.1,1.5c-2.4,0-3.6-1.4-3.6-4.3V9.8c0-2.9,1.2-4.3,3.6-4.3c1.4,0,2.4,0.5,3,1.5
			V1.4h0.9v14h-0.8L259.3,14z M253.6,11.3c0,2.3,0.9,3.5,2.8,3.5c1.9,0,2.9-1.2,2.9-3.5V9.9c0-2.4-1-3.6-2.9-3.6
			c-1.8,0-2.8,1.2-2.8,3.5V11.3z"/>
		<path class="st0" d="M264.3,11.2c0,2.3,1.1,3.6,3.2,3.6c1.1,0,1.8-0.3,2.4-0.9l0.7,0.5c-0.7,0.9-1.7,1.2-3.1,1.2
			c-2.7,0-4-1.5-4-4.5v-0.9c0-3,1.2-4.6,3.8-4.6c2.6,0,3.8,1.5,3.8,4.6v0.5h-6.6V11.2z M270.1,9.9V9.8c0-1-0.2-1.8-0.6-2.4
			c-0.5-0.7-1.2-1-2.3-1c-1.9,0-2.9,1.2-2.9,3.4v0.1C264.3,9.9,270.1,9.9,270.1,9.9z"/>
		<path class="st0" d="M274.1,5.7h0.7l0.1,1.5c0.5-1.1,1.3-1.6,2.6-1.6c0.6,0,1.1,0.1,1.7,0.4l-0.4,0.8c-0.5-0.3-0.9-0.4-1.4-0.4
			c-1.7,0-2.4,1.3-2.4,4.3v4.8h-0.9L274.1,5.7L274.1,5.7z"/>
		<path class="st0" d="M0.4,21.9h5c1.3,0,2.1,0.2,2.7,0.9c0.7,0.6,1.1,1.6,1.1,2.7c0,1.5-0.6,2.5-1.9,3.2c0.7,0.3,1,0.5,1.3,0.8
			c0.6,0.7,0.9,1.7,0.9,2.8c0,1.3-0.4,2.3-1.2,3c-0.6,0.6-1.3,0.7-2.6,0.7H0.4V21.9z M5.4,28.3c1,0,1.5-0.2,2-0.6
			c0.5-0.5,0.8-1.3,0.8-2.1c0-0.9-0.3-1.8-0.9-2.2c-0.5-0.4-1-0.5-1.9-0.5h-4v5.5H5.4z M5.7,35.1c1,0,1.5-0.2,2-0.7
			c0.5-0.5,0.8-1.4,0.8-2.3c0-1-0.4-2-0.9-2.5c-0.5-0.4-1-0.6-1.9-0.6H1.4v6H5.7z"/>
		<path class="st0" d="M13.3,31.7c0,2.3,1.1,3.6,3.2,3.6c1.1,0,1.8-0.3,2.4-0.9l0.7,0.5c-0.7,0.9-1.7,1.3-3.1,1.3
			c-2.7,0-4-1.5-4-4.6v-0.9c0-3.1,1.3-4.6,3.8-4.6c2.6,0,3.8,1.5,3.8,4.6v0.5h-6.7L13.3,31.7L13.3,31.7z M19,30.4v-0.1
			c0-1-0.2-1.8-0.6-2.4c-0.5-0.7-1.2-1-2.3-1c-1.9,0-2.9,1.2-2.9,3.4v0.1H19z"/>
		<path class="st0" d="M22.4,35.3l5.4-8.3h-5v-0.8H29v0.6l-5.4,8.3h5.8v0.8h-6.9C22.4,35.9,22.4,35.3,22.4,35.3z"/>
		<path class="st0" d="M32.6,21.9h0.9v1.8h-0.9V21.9z M32.6,26.2h0.9v9.7h-0.9V26.2z"/>
		<path class="st0" d="M37.4,26.2h0.7l0.1,1.5c0.5-1.1,1.3-1.6,2.6-1.6c0.6,0,1.1,0.1,1.7,0.4l-0.4,0.8c-0.5-0.3-0.9-0.4-1.4-0.4
			c-1.7,0-2.4,1.3-2.4,4.3v4.8h-0.9C37.4,35.9,37.4,26.2,37.4,26.2z"/>
		<path class="st0" d="M45,21.9H46v10.6l5-6.3H52l-3.3,4.1l3.8,5.6h-1L48.2,31L46,33.8v2.2h-0.9L45,21.9L45,21.9z"/>
		<path class="st0" d="M55,34.3c0.7,0.7,1.6,0.9,2.9,0.9c1.9,0,2.9-0.6,2.9-1.9c0-0.7-0.3-1.2-0.8-1.5c-0.5-0.3-0.8-0.3-2-0.5
			c-1.4-0.2-1.9-0.4-2.4-0.8c-0.5-0.4-0.7-1-0.7-1.8c0-1.7,1.1-2.7,3-2.7c1.5,0,2.6,0.4,3.3,1.3l-0.7,0.5c-0.6-0.7-1.4-1-2.5-1
			c-1.4,0-2.2,0.7-2.2,1.9c0,0.6,0.3,1.1,0.7,1.4c0.3,0.2,0.7,0.3,1.8,0.5c1.5,0.2,2.1,0.4,2.6,0.8c0.5,0.4,0.9,1.1,0.9,2
			c0,1.8-1.3,2.7-3.7,2.7c-1.6,0-2.9-0.4-3.6-1.2L55,34.3z"/>
		<path class="st0" d="M63.7,26.2h0.9l3.1,8.4l3.1-8.4h0.9l-3.6,9.7h-0.7L63.7,26.2z"/>
		<path class="st0" d="M74.9,31.7c0,2.3,1.1,3.6,3.2,3.6c1.1,0,1.8-0.3,2.4-0.9l0.7,0.5c-0.7,0.9-1.7,1.3-3.1,1.3
			c-2.7,0-4-1.5-4-4.6v-0.9c0-3.1,1.3-4.6,3.8-4.6c2.6,0,3.8,1.5,3.8,4.6v0.5h-6.7L74.9,31.7L74.9,31.7z M80.7,30.4v-0.1
			c0-1-0.2-1.8-0.6-2.4c-0.5-0.7-1.2-1-2.3-1c-1.9,0-2.9,1.2-2.9,3.4v0.1H80.7z"/>
		<path class="st0" d="M84.9,26.2h0.7l0.1,1.5c0.5-1.1,1.3-1.6,2.6-1.6c0.6,0,1.1,0.1,1.7,0.4l-0.4,0.8c-0.5-0.3-0.9-0.4-1.4-0.4
			c-1.7,0-2.4,1.3-2.4,4.3v4.8h-0.9V26.2z"/>
		<path class="st0" d="M92.1,34.3c0.7,0.7,1.6,0.9,2.9,0.9c1.9,0,2.9-0.6,2.9-1.9c0-0.7-0.3-1.2-0.8-1.5c-0.5-0.3-0.8-0.3-2-0.5
			c-1.4-0.2-1.9-0.4-2.4-0.8c-0.5-0.4-0.7-1-0.7-1.8C92,27,93,26,95,26c1.5,0,2.6,0.4,3.3,1.3l-0.7,0.5c-0.6-0.7-1.4-1-2.5-1
			c-1.4,0-2.2,0.7-2.2,1.9c0,0.6,0.3,1.1,0.7,1.4c0.3,0.2,0.7,0.3,1.8,0.5c1.5,0.2,2.1,0.4,2.6,0.8c0.5,0.4,0.9,1.1,0.9,2
			c0,1.8-1.3,2.7-3.7,2.7c-1.6,0-2.9-0.4-3.6-1.2L92.1,34.3z"/>
		<path class="st0" d="M107.8,29.5c0-1-0.1-1.4-0.4-1.8c-0.4-0.5-1.1-0.8-2.1-0.8c-1.1,0-1.9,0.3-2.6,1l-0.6-0.5
			c0.7-0.8,1.9-1.3,3.3-1.3c1.4,0,2.3,0.4,2.9,1.3c0.3,0.6,0.5,1.1,0.5,2.3V36h-0.8l-0.1-0.8c-0.6,0.7-1.4,0.9-2.9,0.9
			c-2.6,0-3.5-0.7-3.5-2.8c0-2.1,1-2.9,3.7-2.9h2.6L107.8,29.5L107.8,29.5z M105.2,31.2c-2.1,0-2.8,0.6-2.8,2.1c0,1.5,0.7,2,2.7,2
			c1.3,0,2-0.2,2.4-0.7c0.2-0.3,0.3-0.6,0.3-1.5v-1.9H105.2z"/>
		<path class="st0" d="M112.5,26.2h0.7l0.1,1.5c0.5-1.1,1.4-1.6,2.7-1.6c1.5,0,2.5,0.6,3,1.9c0.5-1.3,1.5-1.9,3-1.9
			c1.5,0,2.5,0.6,3,1.9c0.2,0.6,0.3,1.3,0.3,2.4v5.6h-0.9v-5.5c0-1-0.1-1.7-0.3-2.2c-0.4-0.9-1.1-1.4-2.1-1.4
			c-1.8,0-2.6,1.2-2.6,4.2V36h-0.9v-5.6c0-2.4-0.7-3.5-2.4-3.5c-1.2,0-1.9,0.6-2.3,1.8c-0.2,0.6-0.3,1.3-0.3,2.4V36h-0.9V26.2z"/>
		<path class="st0" d="M129.1,26.2h0.7l0.1,1.5c0.5-1.1,1.4-1.6,2.7-1.6c1.5,0,2.5,0.6,3,1.9c0.5-1.3,1.5-1.9,3-1.9
			c1.5,0,2.5,0.6,3,1.9c0.2,0.6,0.3,1.3,0.3,2.4v5.6H141v-5.5c0-1-0.1-1.7-0.3-2.2c-0.4-0.9-1.1-1.4-2.1-1.4c-1.8,0-2.6,1.2-2.6,4.2
			V36h-0.9v-5.6c0-2.4-0.7-3.5-2.4-3.5c-1.2,0-1.9,0.6-2.3,1.8c-0.2,0.6-0.3,1.3-0.3,2.4V36h-0.9V26.2z"/>
		<path class="st0" d="M146.6,21.9v11.5c0,1.3,0.4,1.7,1.6,1.7h0.6v0.8h-0.7c-1.9,0-2.5-0.6-2.5-2.6V21.9L146.6,21.9L146.6,21.9z"/>
		<path class="st0" d="M152.1,26.2v5.5c0,1,0.1,1.6,0.3,2.2c0.4,0.9,1.1,1.4,2.2,1.4c1.9,0,2.7-1.2,2.7-4.2v-4.9h0.9v9.7h-0.7
			l-0.1-1.5c-0.5,1.1-1.4,1.6-2.8,1.6c-1.6,0-2.6-0.6-3.1-1.9c-0.2-0.5-0.3-1.3-0.3-2.4v-5.6L152.1,26.2L152.1,26.2z"/>
		<path class="st0" d="M162.1,26.2h0.7l0.1,1.5c0.6-1.1,1.5-1.6,2.9-1.6c1.6,0,2.7,0.6,3.2,1.9c0.2,0.5,0.3,1.3,0.3,2.4v5.6h-0.9
			v-5.5c0-1-0.1-1.7-0.3-2.2c-0.4-0.9-1.2-1.4-2.3-1.4c-1.3,0-2.1,0.6-2.5,1.8c-0.2,0.6-0.3,1.3-0.3,2.4v4.9h-0.9L162.1,26.2
			L162.1,26.2z"/>
		<path class="st0" d="M179.4,34.5c-0.6,1.1-1.6,1.6-3,1.6c-2.4,0-3.6-1.4-3.6-4.3v-1.5c0-2.8,1.2-4.3,3.6-4.3
			c1.5,0,2.5,0.5,3.1,1.6l0.1-1.5h0.8v9.9c0,2.9-1.4,4.4-4,4.4c-1.4,0-2.4-0.4-3.2-1.3l0.7-0.5c0.6,0.7,1.4,1,2.5,1
			c2,0,3.1-1.2,3.1-3.5L179.4,34.5L179.4,34.5z M173.7,31.8c0,2.3,0.9,3.5,2.8,3.5c1.9,0,2.9-1.2,2.9-3.6v-1.3c0-2.4-1-3.6-2.9-3.6
			c-1.9,0-2.8,1.2-2.8,3.5V31.8z"/>
		<path class="st0" d="M190.5,21.9h1l3,12.3l3.5-12.3h0.6l3.5,12.3l3-12.3h1l-3.5,14h-0.7l-3.4-12.2l-3.4,12.2H194L190.5,21.9z"/>
		<path class="st0" d="M213.9,29.5c0-1-0.1-1.4-0.4-1.8c-0.4-0.5-1.1-0.8-2.1-0.8c-1.1,0-1.9,0.3-2.6,1l-0.6-0.5
			c0.7-0.8,1.9-1.3,3.3-1.3c1.4,0,2.3,0.4,2.9,1.3c0.3,0.6,0.5,1.1,0.5,2.3V36H214l-0.1-0.8c-0.6,0.7-1.4,0.9-2.9,0.9
			c-2.6,0-3.5-0.7-3.5-2.8c0-2.1,1-2.9,3.7-2.9h2.6L213.9,29.5L213.9,29.5z M211.2,31.2c-2.1,0-2.8,0.6-2.8,2.1c0,1.5,0.7,2,2.7,2
			c1.3,0,2-0.2,2.4-0.7c0.2-0.3,0.3-0.6,0.3-1.5v-1.9H211.2z"/>
		<path class="st0" d="M218.6,26.2h0.7l0.1,1.5c0.6-1.1,1.5-1.6,2.9-1.6c1.6,0,2.7,0.6,3.2,1.9c0.2,0.5,0.3,1.3,0.3,2.4v5.6h-0.9
			v-5.5c0-1-0.1-1.7-0.3-2.2c-0.4-0.9-1.2-1.4-2.3-1.4c-1.3,0-2.1,0.6-2.5,1.8c-0.2,0.6-0.3,1.3-0.3,2.4v4.9h-0.9V26.2z"/>
		<path class="st0" d="M236,34.6c-0.8,1.2-1.6,1.5-3.1,1.5c-2.4,0-3.6-1.4-3.6-4.3v-1.5c0-2.9,1.2-4.3,3.6-4.3c1.5,0,2.4,0.5,3,1.6
			v-5.7h0.9v14h-0.8L236,34.6z M230.2,31.8c0,2.3,0.9,3.5,2.8,3.5c1.9,0,2.9-1.2,2.9-3.6v-1.3c0-2.4-1-3.6-2.9-3.6
			c-1.8,0-2.8,1.2-2.8,3.5V31.8z"/>
		<path class="st0" d="M240.1,34.3c0.7,0.7,1.6,0.9,2.9,0.9c1.9,0,2.9-0.6,2.9-1.9c0-0.7-0.3-1.2-0.8-1.5c-0.5-0.3-0.8-0.3-2-0.5
			c-1.4-0.2-1.9-0.4-2.4-0.8c-0.5-0.4-0.7-1-0.7-1.8c0-1.7,1.1-2.7,3-2.7c1.5,0,2.6,0.4,3.3,1.3l-0.7,0.5c-0.6-0.7-1.4-1-2.5-1
			c-1.4,0-2.2,0.7-2.2,1.9c0,0.6,0.3,1.1,0.7,1.4c0.3,0.2,0.7,0.3,1.8,0.5c1.5,0.2,2.1,0.4,2.6,0.8c0.5,0.4,0.9,1.1,0.9,2
			c0,1.8-1.3,2.7-3.7,2.7c-1.6,0-2.9-0.4-3.6-1.2L240.1,34.3z"/>
		<path class="st0" d="M249.8,21.9h0.9v5.7c0.6-1.1,1.6-1.6,3-1.6c2.4,0,3.6,1.4,3.6,4.3v1.5c0,2.8-1.2,4.3-3.6,4.3
			c-1.5,0-2.3-0.4-3.1-1.5l-0.1,1.4h-0.8L249.8,21.9L249.8,21.9z M256.4,30.4c0-2.3-0.9-3.5-2.8-3.5c-1.9,0-2.9,1.2-2.9,3.6v1.3
			c0,2.4,1,3.6,2.9,3.6c1.9,0,2.8-1.2,2.8-3.5L256.4,30.4L256.4,30.4z"/>
		<path class="st0" d="M261.5,31.7c0,2.3,1.1,3.6,3.2,3.6c1.1,0,1.8-0.3,2.4-0.9l0.7,0.5c-0.7,0.9-1.7,1.3-3.1,1.3
			c-2.7,0-4-1.5-4-4.6v-0.9c0-3.1,1.3-4.6,3.8-4.6c2.6,0,3.8,1.5,3.8,4.6v0.5h-6.7L261.5,31.7L261.5,31.7z M267.2,30.4v-0.1
			c0-1-0.2-1.8-0.6-2.4c-0.5-0.7-1.2-1-2.3-1c-1.9,0-2.9,1.2-2.9,3.4v0.1H267.2z"/>
		<path class="st0" d="M271.4,21.9h0.9v10.6l5-6.3h1.1l-3.3,4.1l3.8,5.6h-1l-3.3-4.9l-2.2,2.7v2.2h-0.9L271.4,21.9L271.4,21.9z"/>
	</g>
</g>
</svg>
