<?xml version="1.0" encoding="utf-8"?>
<!-- Generator: Adobe Illustrator 18.1.0, SVG Export Plug-In . SVG Version: 6.00 Build 0)  -->
<!DOCTYPE svg PUBLIC "-//W3C//DTD SVG 1.1//EN" "http://www.w3.org/Graphics/SVG/1.1/DTD/svg11.dtd">
<svg version="1.1" id="Layer_1" xmlns="http://www.w3.org/2000/svg" xmlns:xlink="http://www.w3.org/1999/xlink" x="0px" y="0px"
	 viewBox="0 0 32 192" enable-background="new 0 0 32 192" xml:space="preserve">
<path fill="#FF0037" d="M30.449,184.37l-8.103-8.103c-0.243-0.243-0.243-0.637,0-0.881l8.111-8.111c0.556-0.556,0.556-1.458,0-2.014
	l-3.71-3.71c-0.654-0.654-1.724-0.654-2.378,0l-7.929,7.929c-0.243,0.243-0.637,0.243-0.881,0l-8.34-8.111
	c-0.556-0.556-1.458-0.556-2.014,0l-3.715,3.715c-0.654,0.654-0.654,1.714,0,2.368l8.163,7.934c0.243,0.243,0.243,0.637,0,0.881
	l-8.103,8.103c-0.657,0.657-0.657,1.721,0,2.378l3.533,3.533c0.651,0.651,1.717,0.651,2.368,0l8.108-8.108
	c0.243-0.243,0.637-0.243,0.881,0l8.285,8.285c0.556,0.556,1.458,0.556,2.014,0l3.71-3.71
	C31.103,186.094,31.103,185.024,30.449,184.37z"/>
<path fill="#FF0000" d="M25.1,158.492c-0.488,0-0.948-0.19-1.295-0.536l-7.749-7.749l-0.47-0.354l0.354,0.354l-7.583,7.583
	c-0.779,0.779-2.145,0.776-2.922,0l-3.304-3.304c-0.808-0.809-0.808-2.123,0-2.932l7.578-7.578l0.354-0.47l-0.349,0.358l-7.634-7.42
	c-0.395-0.395-0.61-0.914-0.61-1.466s0.215-1.071,0.605-1.461l3.474-3.475c0.692-0.691,1.897-0.691,2.59,0l7.795,7.581l0.121,0.005
	l7.416-7.415c0.778-0.78,2.151-0.782,2.931,0l3.471,3.47c0.346,0.346,0.536,0.806,0.536,1.295s-0.19,0.949-0.536,1.295l-7.586,7.586
	v0.116l7.578,7.578c0.808,0.809,0.808,2.123,0,2.932l-3.471,3.47C26.049,158.302,25.589,158.492,25.1,158.492z M15.998,149.184
	c0.289,0,0.561,0.112,0.765,0.316l7.749,7.749c0.314,0.312,0.861,0.313,1.176,0l3.471-3.47c0.418-0.418,0.418-1.1,0-1.518
	l-7.578-7.578c-0.204-0.203-0.316-0.475-0.317-0.764c0-0.289,0.112-0.562,0.317-0.767l7.586-7.586
	c0.157-0.157,0.243-0.365,0.243-0.588s-0.086-0.431-0.243-0.588l-3.471-3.47c-0.403-0.405-1.114-0.403-1.517,0l-7.416,7.415
	c-0.408,0.408-1.122,0.408-1.531,0l-7.795-7.581c-0.324-0.322-0.868-0.317-1.181-0.005l-3.474,3.475
	c-0.202,0.201-0.312,0.469-0.312,0.754s0.111,0.553,0.312,0.754l7.629,7.415c0.209,0.21,0.322,0.482,0.322,0.771
	c0,0.289-0.113,0.561-0.317,0.765l-7.578,7.577c-0.203,0.203-0.314,0.472-0.314,0.759s0.111,0.556,0.314,0.759l3.304,3.304
	c0.4,0.4,1.107,0.4,1.508,0l7.583-7.583C15.438,149.296,15.709,149.184,15.998,149.184z"/>
<path fill="#009900" d="M25.925,39.422c-0.389-0.389-1.02-0.389-1.409,0L12.888,51.05l-5.43-5.43c-0.389-0.389-1.02-0.389-1.409,0
	l-4.757,4.757c-0.389,0.389-0.389,1.02,0,1.409l10.923,10.923c0.389,0.389,1.02,0.389,1.409,0l4.757-4.757
	c0.068-0.068,0.12-0.146,0.165-0.227l12.137-12.137c0.389-0.389,0.389-1.02,0-1.409L25.925,39.422z"/>
<path fill="#39B54A" d="M12.92,31c-0.267,0-0.518-0.104-0.706-0.293L1.292,19.786c-0.388-0.389-0.388-1.021,0-1.409l4.757-4.757
	c0.375-0.376,1.033-0.377,1.409,0l5.431,5.43L24.517,7.422c0.378-0.379,1.034-0.376,1.41,0.001l4.756,4.755
	c0.388,0.389,0.388,1.021,0,1.409L18.544,25.727c-0.066,0.114-0.112,0.174-0.163,0.225l-4.757,4.756
	C13.436,30.896,13.186,31,12.92,31z M6.751,14.327l-4.752,4.756l10.92,10.915l17.056-17.117L25.219,8.13l-12.33,12.334L6.751,14.327
	z"/>
<g>
	<path fill="#FFCC00" d="M20,125.984c0,0.561-0.455,1.016-1.016,1.016h-6.968c-0.561,0-1.016-0.455-1.016-1.016v-6.968
		c0-0.561,0.455-1.016,1.016-1.016h6.968c0.561,0,1.016,0.455,1.016,1.016V125.984z"/>
	<path fill="#FFCC00" d="M20,115.984c0,0.561-0.455,1.016-1.016,1.016h-6.968c-0.561,0-1.016-0.455-1.016-1.016V98.016
		C11,97.455,11.455,97,12.016,97h6.968C19.545,97,20,97.455,20,98.016V115.984z"/>
	<g>
		<path fill="#FFCC00" d="M18.984,95h-6.969C11.456,95,11,94.544,11,93.984v-6.969C11,86.456,11.456,86,12.016,86h6.969
			C19.544,86,20,86.456,20,87.016v6.969C20,94.544,19.544,95,18.984,95z M12.016,87L12,93.984L18.984,94
			C18.993,94,19,93.993,19,93.984v-6.969L12.016,87z"/>
		<path fill="#FFCC00" d="M18.984,85h-6.969C11.456,85,11,84.544,11,83.984V66.016C11,65.456,11.456,65,12.016,65h6.969
			C19.544,65,20,65.456,20,66.016v17.969C20,84.544,19.544,85,18.984,85z M12.016,66L12,83.984L18.984,84
			C18.993,84,19,83.993,19,83.984V66.016L12.016,66z"/>
	</g>
</g>
</svg>
